<?xml version="1.0" encoding="utf-8"?>
<!-- Generator: Adobe Illustrator 19.1.0, SVG Export Plug-In . SVG Version: 6.00 Build 0)  -->
<svg version="1.1" id="linkedin" xmlns="http://www.w3.org/2000/svg" xmlns:xlink="http://www.w3.org/1999/xlink" x="0px" y="0px"
	 viewBox="-255 347 100 100" style="enable-background:new -255 347 100 100;" xml:space="preserve">
<style type="text/css">
	.st0{fill:#429034;}
	.st1{fill:#F7F7F7;}
</style>
<circle class="st0" cx="-205" cy="397" r="48"/>
<path class="st1" d="M-188.7,372.5h-32.5c-4.5,0-8.2,3.7-8.2,8.2v32.5c0,4.5,3.7,8.2,8.2,8.2h32.5c4.5,0,8.2-3.7,8.2-8.2v-32.5
	C-180.5,376.2-184.2,372.5-188.7,372.5z M-211.1,412.3h-6.1v-21.4h6.1V412.3z M-214.2,387.8c-1.7,0-3.1-1.4-3.1-3.1s1.4-3.1,3.1-3.1
	s3.1,1.4,3.1,3.1S-212.5,387.8-214.2,387.8z M-189.7,412.3h-6.1v-12.2c0-1.7-1.4-3.1-3.1-3.1s-3.1,1.4-3.1,3.1v12.2h-6.1v-21.4h6.1
	v3.8c1.3-1.7,3.2-3.8,5.4-3.8c3.8,0,6.9,3.4,6.9,7.7L-189.7,412.3L-189.7,412.3z"/>
</svg>
